<svg width="25" height="25" viewBox="0 0 25 25" fill="none" xmlns="http://www.w3.org/2000/svg">
<g clip-path="url(#clip0_43_182)">
<path d="M23.9583 19.7917C23.9583 20.3442 23.7388 20.8741 23.3481 21.2648C22.9574 21.6555 22.4275 21.875 21.875 21.875H3.12501C2.57247 21.875 2.04257 21.6555 1.65187 21.2648C1.26117 20.8741 1.04167 20.3442 1.04167 19.7917V8.33333C1.04167 7.7808 1.26117 7.25089 1.65187 6.86019C2.04257 6.46949 2.57247 6.25 3.12501 6.25H7.29167L9.375 3.125H15.625L17.7083 6.25H21.875C22.4275 6.25 22.9574 6.46949 23.3481 6.86019C23.7388 7.25089 23.9583 7.7808 23.9583 8.33333V19.7917Z" stroke="#EA8C2F" stroke-width="3" stroke-linecap="round" stroke-linejoin="round"/>
<path d="M12.5 17.7083C14.8012 17.7083 16.6667 15.8429 16.6667 13.5417C16.6667 11.2405 14.8012 9.375 12.5 9.375C10.1988 9.375 8.33334 11.2405 8.33334 13.5417C8.33334 15.8429 10.1988 17.7083 12.5 17.7083Z" stroke="#EA8C2F" stroke-width="3" stroke-linecap="round" stroke-linejoin="round"/>
</g>
<defs>
<clipPath id="clip0_43_182">
<rect width="25" height="25" fill="white"/>
</clipPath>
</defs>
</svg>
