<svg width="25" height="25" viewBox="0 0 25 25" fill="none" xmlns="http://www.w3.org/2000/svg">
<g clip-path="url(#clip0_43_133)">
<path d="M22.9167 11.5417V12.5C22.9154 14.7463 22.188 16.932 20.8431 18.7311C19.4981 20.5302 17.6076 21.8464 15.4535 22.4833C13.2994 23.1201 10.9971 23.0437 8.89007 22.2652C6.783 21.4868 4.98401 20.048 3.76141 18.1636C2.53881 16.2792 1.95811 14.0501 2.10591 11.8087C2.25371 9.56728 3.12209 7.43369 4.58154 5.72614C6.04099 4.01858 8.01331 2.82854 10.2044 2.33351C12.3954 1.83847 14.6878 2.06496 16.7396 2.97919M22.9167 4.16669L12.5 14.5938L9.375 11.4688" stroke="#2B5081" stroke-width="3" stroke-linecap="round" stroke-linejoin="round"/>
</g>
<defs>
<clipPath id="clip0_43_133">
<rect width="25" height="25" fill="white"/>
</clipPath>
</defs>
</svg>
