<svg width="16" height="16" viewBox="0 0 16 16" fill="none" xmlns="http://www.w3.org/2000/svg">
<g clip-path="url(#clip0_3_209)">
<path d="M7.1296 2.59258H2.59256C2.24876 2.59258 1.91904 2.72915 1.67594 2.97226C1.43284 3.21536 1.29626 3.54508 1.29626 3.88888V12.963C1.29626 13.3068 1.43284 13.6365 1.67594 13.8796C1.91904 14.1227 2.24876 14.2592 2.59256 14.2592H11.6666C12.0104 14.2592 12.3402 14.1227 12.5833 13.8796C12.8264 13.6365 12.9629 13.3068 12.9629 12.963V8.42591M11.9907 1.62036C12.2486 1.36251 12.5983 1.21765 12.9629 1.21765C13.3276 1.21765 13.6773 1.36251 13.9352 1.62036C14.193 1.87821 14.3379 2.22793 14.3379 2.59258C14.3379 2.95724 14.193 3.30695 13.9352 3.5648L7.77775 9.72221L5.18515 10.3704L5.8333 7.77777L11.9907 1.62036Z" stroke="#2B5081" stroke-width="2" stroke-linecap="round" stroke-linejoin="round"/>
</g>
<defs>
<clipPath id="clip0_3_209">
<rect width="15.5556" height="15.5556" fill="white"/>
</clipPath>
</defs>
</svg>
