<svg width="20" height="20" viewBox="0 0 20 20" fill="none" xmlns="http://www.w3.org/2000/svg">
<g clip-path="url(#clip0_142_347)">
<path d="M14.95 14.95C13.5255 16.0358 11.7909 16.6374 9.99998 16.6667C4.16665 16.6667 0.833313 10 0.833313 10C1.86989 8.06826 3.30759 6.38052 5.04998 5.05001M8.24998 3.53334C8.82359 3.39908 9.41087 3.33196 9.99998 3.33334C15.8333 3.33334 19.1666 10 19.1666 10C18.6608 10.9464 18.0575 11.8373 17.3666 12.6583M11.7666 11.7667C11.5378 12.0123 11.2618 12.2093 10.9551 12.3459C10.6484 12.4826 10.3174 12.5561 9.98172 12.562C9.64605 12.5679 9.31262 12.5062 9.00132 12.3804C8.69003 12.2547 8.40725 12.0675 8.16985 11.8301C7.93246 11.5927 7.74531 11.31 7.61957 10.9987C7.49383 10.6874 7.43209 10.3539 7.43801 10.0183C7.44393 9.68259 7.5174 9.35155 7.65404 9.04488C7.79068 8.73822 7.98769 8.46222 8.23331 8.23334M0.833313 0.833344L19.1666 19.1667" stroke="#CDCDCD" stroke-width="2" stroke-linecap="round" stroke-linejoin="round"/>
</g>
<defs>
<clipPath id="clip0_142_347">
<rect width="20" height="20" fill="white"/>
</clipPath>
</defs>
</svg>
