<svg width="25" height="25" viewBox="0 0 25 25" fill="none" xmlns="http://www.w3.org/2000/svg">
<path d="M7.29167 11.4583V7.29168C7.29167 5.91034 7.8404 4.58558 8.81715 3.60883C9.7939 2.63208 11.1187 2.08334 12.5 2.08334C13.8813 2.08334 15.2061 2.63208 16.1828 3.60883C17.1596 4.58558 17.7083 5.91034 17.7083 7.29168V11.4583M5.20833 11.4583H19.7917C20.9423 11.4583 21.875 12.3911 21.875 13.5417V20.8333C21.875 21.9839 20.9423 22.9167 19.7917 22.9167H5.20833C4.05774 22.9167 3.125 21.9839 3.125 20.8333V13.5417C3.125 12.3911 4.05774 11.4583 5.20833 11.4583Z" stroke="#2B5081" stroke-width="3" stroke-linecap="round" stroke-linejoin="round"/>
</svg>
