<svg width="80" height="80" viewBox="0 0 80 80" fill="none" xmlns="http://www.w3.org/2000/svg">
<path d="M40 40C36.3334 40 33.1945 38.6944 30.5834 36.0833C27.9723 33.4722 26.6667 30.3333 26.6667 26.6666C26.6667 23 27.9723 19.8611 30.5834 17.25C33.1945 14.6389 36.3334 13.3333 40 13.3333C43.6667 13.3333 46.8056 14.6389 49.4167 17.25C52.0278 19.8611 53.3334 23 53.3334 26.6666C53.3334 30.3333 52.0278 33.4722 49.4167 36.0833C46.8056 38.6944 43.6667 40 40 40ZM13.3334 66.6666V57.3333C13.3334 55.4444 13.8195 53.7083 14.7917 52.125C15.7639 50.5416 17.0556 49.3333 18.6667 48.5C22.1112 46.7778 25.6112 45.4861 29.1667 44.625C32.7223 43.7639 36.3334 43.3333 40 43.3333C43.6667 43.3333 47.2778 43.7639 50.8334 44.625C54.3889 45.4861 57.8889 46.7778 61.3334 48.5C62.9445 49.3333 64.2361 50.5416 65.2084 52.125C66.1806 53.7083 66.6667 55.4444 66.6667 57.3333V66.6666H13.3334ZM20 60H60V57.3333C60 56.7222 59.8473 56.1666 59.5417 55.6666C59.2362 55.1666 58.8334 54.7778 58.3334 54.5C55.3334 53 52.3056 51.875 49.25 51.125C46.1945 50.375 43.1112 50 40 50C36.8889 50 33.8056 50.375 30.75 51.125C27.6945 51.875 24.6667 53 21.6667 54.5C21.1667 54.7778 20.7639 55.1666 20.4584 55.6666C20.1528 56.1666 20 56.7222 20 57.3333V60ZM40 33.3333C41.8334 33.3333 43.4028 32.6805 44.7084 31.375C46.0139 30.0694 46.6667 28.5 46.6667 26.6666C46.6667 24.8333 46.0139 23.2639 44.7084 21.9583C43.4028 20.6528 41.8334 20 40 20C38.1667 20 36.5973 20.6528 35.2917 21.9583C33.9862 23.2639 33.3334 24.8333 33.3334 26.6666C33.3334 28.5 33.9862 30.0694 35.2917 31.375C36.5973 32.6805 38.1667 33.3333 40 33.3333Z" fill="white"/>
</svg>
