<svg width="24" height="24" viewBox="0 0 24 24" fill="none" xmlns="http://www.w3.org/2000/svg">
<g clip-path="url(#clip0_25_61)">
<path d="M14.7231 4.89139C15.6787 5.07782 16.5568 5.54513 17.2452 6.23353C17.9336 6.92192 18.4009 7.80008 18.5873 8.75559M14.7231 0.978271C16.7083 1.19881 18.5595 2.08781 19.9728 3.49931C21.3861 4.9108 22.2774 6.76089 22.5005 8.74581M21.5222 16.5525V19.4873C21.5233 19.7598 21.4675 20.0295 21.3583 20.2791C21.2492 20.5287 21.0891 20.7528 20.8883 20.937C20.6876 21.1212 20.4505 21.2614 20.1925 21.3487C19.9344 21.436 19.6609 21.4684 19.3895 21.4439C16.3792 21.1168 13.4876 20.0881 10.947 18.4406C8.58328 16.9386 6.57929 14.9346 5.0773 12.5709C3.42399 10.0188 2.39509 7.11306 2.07398 4.0892C2.04953 3.81867 2.08168 3.54602 2.16838 3.2886C2.25509 3.03118 2.39444 2.79463 2.57757 2.59402C2.76069 2.3934 2.98359 2.23312 3.23206 2.12337C3.48053 2.01362 3.74913 1.95681 4.02076 1.95655H6.9556C7.43036 1.95188 7.89063 2.12 8.25061 2.42958C8.61058 2.73916 8.84571 3.16908 8.91215 3.63919C9.03603 4.57841 9.26575 5.50059 9.59695 6.38816C9.72857 6.73831 9.75706 7.11885 9.67904 7.48469C9.60101 7.85054 9.41975 8.18635 9.15672 8.45233L7.91431 9.69474C9.30695 12.1439 11.3348 14.1718 13.784 15.5644L15.0264 14.322C15.2924 14.059 15.6282 13.8777 15.994 13.7997C16.3599 13.7217 16.7404 13.7502 17.0906 13.8818C17.9781 14.213 18.9003 14.4427 19.8395 14.5666C20.3148 14.6336 20.7488 14.873 21.059 15.2391C21.3692 15.6053 21.5341 16.0727 21.5222 16.5525Z" stroke="white" stroke-width="2.5" stroke-linecap="round" stroke-linejoin="round"/>
</g>
<defs>
<clipPath id="clip0_25_61">
<rect width="23.4787" height="23.4787" fill="white"/>
</clipPath>
</defs>
</svg>
